<?xml version="1.0" encoding="utf-8"?>
<!-- Generator: Adobe Illustrator 15.0.0, SVG Export Plug-In . SVG Version: 6.00 Build 0)  -->
<!DOCTYPE svg PUBLIC "-//W3C//DTD SVG 1.1//EN" "http://www.w3.org/Graphics/SVG/1.1/DTD/svg11.dtd">
<svg version="1.1" id="圖層_1" xmlns="http://www.w3.org/2000/svg" xmlns:xlink="http://www.w3.org/1999/xlink" x="0px" y="0px"
	 width="24px" height="24px" viewBox="0 0 24 24" enable-background="new 0 0 24 24" xml:space="preserve">
<g>
	<path d="M9.337,3.105h9.253c0.373,0,0.676,0.304,0.676,0.676v1.355c0,0.374,0.304,0.676,0.678,0.676s0.676-0.303,0.676-0.676V3.781
		c0-1.12-0.911-2.03-2.029-2.03H9.337c-0.373,0-0.677-0.304-0.677-0.678S8.356,0.396,7.983,0.396c-0.374,0-0.677,0.304-0.677,0.677
		C7.307,2.193,8.218,3.105,9.337,3.105z" fill="rgba(255,255,255,1)" />
	<path d="M6.63,5.813h6.995c0.373,0,0.677-0.303,0.677-0.676c0-0.375-0.304-0.677-0.677-0.677H6.63
		c-0.374,0-0.678-0.304-0.678-0.678S5.649,3.105,5.275,3.105S4.599,3.408,4.599,3.781C4.599,4.902,5.509,5.813,6.63,5.813z" fill="rgba(255,255,255,1)" />
	<path d="M7.983,9.289h-6.86c-0.374,0-0.677,0.303-0.677,0.676v12.862c0,0.375,0.303,0.678,0.677,0.678h1.399v-4.288
		c0-0.373,0.303-0.676,0.677-0.676h2.708c0.374,0,0.677,0.303,0.677,0.676v4.288H8.66V9.965C8.66,9.591,8.356,9.289,7.983,9.289z
		 M3.876,16.51c0,0.373-0.303,0.677-0.677,0.677s-0.677-0.304-0.677-0.677v-0.903c0-0.374,0.303-0.676,0.677-0.676
		s0.677,0.302,0.677,0.676V16.51z M3.876,12.899c0,0.374-0.303,0.676-0.677,0.676s-0.677-0.303-0.677-0.676v-0.903
		c0-0.374,0.303-0.678,0.677-0.678s0.677,0.304,0.677,0.678V12.899z M6.584,16.51c0,0.373-0.303,0.677-0.677,0.677
		S5.23,16.883,5.23,16.51v-0.903c0-0.374,0.303-0.676,0.677-0.676s0.677,0.302,0.677,0.676V16.51z M6.584,12.899
		c0,0.374-0.303,0.676-0.677,0.676S5.23,13.272,5.23,12.899v-0.903c0-0.374,0.303-0.678,0.677-0.678s0.677,0.304,0.677,0.678V12.899
		z" fill="rgba(255,255,255,1)" />
	<path d="M3.876,19.895H5.23v3.61H3.876V19.895z" fill="rgba(255,255,255,1)" />
	<path d="M14.414,6.805h-1.579c-0.342,0-0.629,0.254-0.672,0.594l-0.744,5.95h4.411l-0.744-5.95
		C15.044,7.059,14.756,6.805,14.414,6.805z" fill="rgba(255,255,255,1)" />
	<path d="M18.482,7.399l-0.745,5.95h4.411l-0.744-5.95c-0.043-0.34-0.329-0.594-0.672-0.594h-1.58
		C18.812,6.805,18.524,7.059,18.482,7.399z" fill="rgba(255,255,255,1)" />
	<path d="M22.876,14.703H10.015v8.802h2.933V20.12c0-0.374,0.304-0.678,0.678-0.678h6.318c0.374,0,0.676,0.304,0.676,0.678v3.385
		h2.257c0.374,0,0.678-0.303,0.678-0.678v-7.446C23.554,15.008,23.25,14.703,22.876,14.703z M13.625,18.089h-0.903
		c-0.373,0-0.677-0.303-0.677-0.677c0-0.373,0.304-0.678,0.677-0.678h0.903c0.373,0,0.677,0.305,0.677,0.678
		C14.302,17.786,13.998,18.089,13.625,18.089z M17.234,18.089h-0.901c-0.374,0-0.678-0.303-0.678-0.677
		c0-0.373,0.304-0.678,0.678-0.678h0.901c0.375,0,0.678,0.305,0.678,0.678C17.912,17.786,17.609,18.089,17.234,18.089z
		 M20.847,18.089h-0.903c-0.374,0-0.678-0.303-0.678-0.677c0-0.373,0.304-0.678,0.678-0.678h0.903c0.373,0,0.676,0.305,0.676,0.678
		C21.522,17.786,21.22,18.089,20.847,18.089z" fill="rgba(255,255,255,1)" />
	<path d="M14.302,20.798h4.964v2.707h-4.964V20.798z" fill="rgba(255,255,255,1)" />
</g>
</svg>
