<?xml version="1.0" encoding="utf-8"?>
<!-- Generator: Adobe Illustrator 15.0.0, SVG Export Plug-In . SVG Version: 6.00 Build 0)  -->
<!DOCTYPE svg PUBLIC "-//W3C//DTD SVG 1.1//EN" "http://www.w3.org/Graphics/SVG/1.1/DTD/svg11.dtd">
<svg version="1.1" id="圖層_1" xmlns="http://www.w3.org/2000/svg" xmlns:xlink="http://www.w3.org/1999/xlink" x="0px" y="0px"
	 width="138px" height="138px" viewBox="0 0 138 138" enable-background="new 0 0 138 138" xml:space="preserve">
<g>
	<g>
		<path fill="#FEB0CA" stroke="#012DB0" stroke-width="1.8382" stroke-miterlimit="10" d="M99.764,29.691
			c0.164,1.66-2.682,3.382-6.361,3.842c-3.679,0.458-6.793-0.519-6.961-2.185c-0.168-1.666,2.68-3.382,6.357-3.841
			C96.477,27.049,99.597,28.027,99.764,29.691z"/>
		<path fill="#FEB0CA" stroke="#012DB0" stroke-width="1.8382" stroke-miterlimit="10" d="M86.014,30.343
			c0.369-0.045,1.861,3.019,1.861,3.019s-29.117,8.61-22.916,38.262c0.668,3.188,2.377,6.19,4.343,9.231
			c1.481,2.463,3.435,5.043,3.435,8.394c0,6.157-4.476,11.147-9.996,11.147c-5.52,0-8.726-5.248-10.455-11.133
			c-0.535-1.824-1.662-8.236-2.067-12.289C47.633,51.131,64.09,33.073,86.014,30.343z"/>
	</g>
	<path fill="#25915D" stroke="#012DB0" stroke-width="1.8382" stroke-miterlimit="10" d="M50.182,80.351l15.012-6.589
		c0,0,6.128,9.346,7.047,12.716c0.92,3.37,1.225,11.027-6.129,13.479c-7.352,2.453-11.334-3.063-13.632-8.884
		S50.182,80.351,50.182,80.351z"/>
</g>
</svg>
