<?xml version="1.0" encoding="utf-8"?>
<!-- Generator: Adobe Illustrator 15.0.0, SVG Export Plug-In . SVG Version: 6.00 Build 0)  -->
<!DOCTYPE svg PUBLIC "-//W3C//DTD SVG 1.1//EN" "http://www.w3.org/Graphics/SVG/1.1/DTD/svg11.dtd">
<svg version="1.1" id="圖層_1" xmlns="http://www.w3.org/2000/svg" xmlns:xlink="http://www.w3.org/1999/xlink" x="0px" y="0px"
	 width="138px" height="138px" viewBox="0 0 138 138" enable-background="new 0 0 138 138" xml:space="preserve">
<path fill="#25915D" stroke="#012DB0" stroke-width="1.8382" stroke-miterlimit="10" d="M107.642,88.336
	c-6.402-45.47-34.413-40.267-36.612-39.786c-2.198-0.481-30.21-5.684-36.612,39.786c-6.664,47.335,0,42.509,0,42.509h38.527h5.131
	h29.566C107.642,130.845,114.305,135.671,107.642,88.336z"/>
<path fill="#22875B" d="M61.991,49.503c0,0-22.519,8.271-20.68,68.244l2.183,12.294l-10.456,0.345c0,0-3.561-23.782,6.319-59.283
	C49.813,50.078,61.302,49.733,61.991,49.503z"/>
<path fill="#22875B" d="M79.596,49.503c0,0,22.519,8.271,20.681,68.244l-2.183,12.294l10.454,0.345c0,0,3.562-23.782-6.319-59.283
	C91.774,50.078,80.285,49.733,79.596,49.503z"/>
<g>
	<g>
		<path fill-rule="evenodd" clip-rule="evenodd" fill="#FEB0CA" d="M88.721,32.383c-1.72-0.327-2.197,0.617-3.709,0.504
			c-0.039-0.149-0.075-0.3-0.114-0.451c-0.004,0.099-0.007,0.154-0.007,0.154c-3.081-0.842-11.953-5.231-14.242-12.149
			c-2.272,6.87-11.032,11.245-14.17,12.13c-0.053,0.103-0.104,0.215-0.161,0.316c-6.977-4.326-6.84,11.22-0.248,9.829
			c3.09,6.559,9.986,12.51,19.544,9.83c4.736-1.332,7.177-5.292,9.646-9.328C90.207,43.631,92.261,35.192,88.721,32.383z"/>
		<path fill-rule="evenodd" clip-rule="evenodd" fill="#012DB0" d="M87.981,30.904c4.727-26.49-40.04-25.246-34.136,0
			c-6.905,0.721-4.6,14.007,1.979,13.358c4.938,14.162,26.48,13.109,30.179,0C92.508,44.777,94.407,31.945,87.981,30.904z
			 M85.26,43.271c-0.075,0.122-0.484-0.033-0.54,0.097c-2.053,4.737-4.529,7.769-9.174,8.841c-9.387,2.168-15.812-1.51-18.618-9.263
			c-0.038-0.104-0.809-0.068-0.857-0.168c-6.592,1.366-6.727-13.893,0.249-9.647c0.06-0.099,0.106-0.207,0.16-0.311
			c3.138-0.87,11.9-5.162,14.17-11.908c2.287,6.793,11.16,11.102,14.241,11.929c0,0,0.004-0.057,0.009-0.151
			c0.038,0.146,0.072,0.296,0.113,0.44c1.512,0.111,1.987-0.815,3.711-0.496C92.263,35.393,90.209,43.674,85.26,43.271z"/>
	</g>
	<g>
		<g>
			<ellipse fill="#012DB0" cx="65.405" cy="34.979" rx="0.805" ry="2.181"/>
			<ellipse fill="#012DB0" cx="75.864" cy="34.979" rx="0.804" ry="2.181"/>
		</g>
		<path fill="#012DB0" d="M72.32,45.103c-1.008,1.267-2.362,1.437-3.416,0.131c-0.445-0.553-1.288,0.15-0.843,0.702
			c1.516,1.872,3.715,1.616,5.152-0.198C73.654,45.186,72.757,44.554,72.32,45.103z"/>
	</g>
</g>
</svg>
