<svg viewBox="0 0 74 37" style="width:74px;height:37px" preserveAspectRatio="xMinYMin" xmlns="http://www.w3.org/2000/svg" ariaHidden="true">
    <g>
        <polyline fill="#1484C3" points="6.502,0.626 14.091,0.626 12.863,4.304 9.754,4.304 8.594,7.799 11.36,7.799 10.194,11.3 7.426,11.3 4.852,19.032 0.373,19.032 6.502,0.626" />
    </g>
    <g>
        <polyline fill="#1484C3" points="19.652,0.626 14.749,15.35 17.474,15.35 16.245,19.032 9.042,19.032 15.173,0.626 19.652,0.626" />
    </g>
    <g>
        <path fill="#1484C3" d="M31.589,0.626l-7.177,11.745l-2.22,6.661h-4.151l2.219-6.661l0.764-11.745h4.114c-0.555,3.592-0.994,6.01-1.327,7.253c0.902-1.966,2.124-4.383,3.663-7.253H31.589" />
    </g>
    <g>
        <polyline fill="#1484C3" points="41.375,0.626 40.15,4.304 37.489,4.304 32.587,19.032 28.104,19.032 33.011,4.304 30.362,4.304 31.589,0.626 41.375,0.626" />
    </g>
    <g>
        <polyline fill="#1484C3" points="42.395,0.626 49.866,0.626 48.643,4.304 45.649,4.304 44.486,7.799 47.284,7.799 46.118,11.3 43.318,11.3 41.971,15.35 45.264,15.35 44.032,19.032 36.267,19.032 42.395,0.626" />
    </g>
    <g>
        <path fill="#1484C3" d="M59.237,8.636h-4.475l1.063-3.198c0.313-0.928,0.455-1.508,0.437-1.741c-0.018-0.229-0.188-0.348-0.518-0.348c-0.368,0-0.648,0.141-0.844,0.425c-0.189,0.28-0.444,0.885-0.753,1.818l-2.848,8.55c-0.301,0.893-0.444,1.476-0.432,1.752c0.006,0.273,0.186,0.407,0.528,0.407c0.336,0,0.603-0.135,0.793-0.407c0.195-0.276,0.458-0.913,0.794-1.929l0.769-2.316h4.483l-0.24,0.722c-0.634,1.902-1.211,3.257-1.727,4.051c-0.517,0.799-1.307,1.501-2.366,2.096c-1.062,0.604-2.224,0.901-3.489,0.901c-1.309,0-2.309-0.255-2.987-0.763c-0.685-0.509-1.013-1.214-0.989-2.105c0.023-0.904,0.333-2.253,0.932-4.058l1.793-5.379c0.442-1.327,0.816-2.323,1.123-2.984c0.305-0.662,0.771-1.302,1.398-1.92c0.627-0.608,1.371-1.095,2.24-1.447c0.866-0.354,1.782-0.526,2.751-0.526c1.322,0,2.32,0.271,2.997,0.815c0.676,0.547,1.011,1.226,1.011,2.039c0,0.812-0.286,2.081-0.858,3.8L59.237,8.636" />
    </g>
    <g>
        <polyline fill="#1484C3" points="73.813,0.626 67.682,19.032 63.202,19.032 65.781,11.3 64.439,11.3 61.863,19.032 57.382,19.032 63.517,0.626 67.995,0.626 65.804,7.206 67.141,7.206 69.335,0.626 73.813,0.626" />
    </g>
</svg>