<?xml version="1.0" encoding="utf-8"?>
<!-- Generator: Adobe Illustrator 15.0.0, SVG Export Plug-In . SVG Version: 6.00 Build 0)  -->
<!DOCTYPE svg PUBLIC "-//W3C//DTD SVG 1.1//EN" "http://www.w3.org/Graphics/SVG/1.1/DTD/svg11.dtd">
<svg version="1.1" id="圖層_1" xmlns="http://www.w3.org/2000/svg" xmlns:xlink="http://www.w3.org/1999/xlink" x="0px" y="0px"
	 width="24px" height="24px" viewBox="0 0 24 24" enable-background="new 0 0 24 24" xml:space="preserve">
<g>
	<g>
		<path d="M16.594,3.9H15.63c-0.093-0.195-0.2-0.382-0.323-0.56l0.482-0.835c0.158-0.275,0.063-0.625-0.21-0.785L13.59,0.573
			c-0.132-0.077-0.288-0.097-0.436-0.058c-0.147,0.04-0.272,0.136-0.348,0.268l-0.483,0.833c-0.216-0.019-0.429-0.019-0.646,0
			l-0.482-0.833c-0.077-0.132-0.201-0.228-0.349-0.268c-0.146-0.039-0.304-0.019-0.435,0.058l-1.99,1.148
			C8.146,1.88,8.053,2.23,8.212,2.505l0.482,0.836C8.571,3.518,8.464,3.705,8.372,3.9H7.407c-0.317,0-0.575,0.257-0.575,0.574v2.297
			c0,0.317,0.257,0.574,0.575,0.574h0.965c0.093,0.195,0.2,0.381,0.322,0.559L8.212,8.739c-0.159,0.275-0.065,0.626,0.21,0.785
			l1.99,1.148c0.131,0.077,0.289,0.097,0.435,0.058c0.148-0.04,0.273-0.135,0.349-0.268l0.482-0.833c0.218,0.019,0.43,0.019,0.646,0
			l0.483,0.833c0.075,0.131,0.2,0.228,0.348,0.268c0.049,0.013,0.099,0.02,0.148,0.02c0.1,0,0.199-0.026,0.287-0.078l1.989-1.148
			c0.273-0.159,0.368-0.509,0.21-0.785l-0.482-0.835c0.123-0.177,0.23-0.364,0.323-0.559h0.964c0.318,0,0.575-0.257,0.575-0.574
			V6.197V5.048V4.474C17.169,4.157,16.912,3.9,16.594,3.9L16.594,3.9z M12.001,7.308c-0.93,0-1.686-0.756-1.686-1.685
			c0-0.93,0.756-1.686,1.686-1.686c0.929,0,1.686,0.756,1.686,1.686C13.687,6.552,12.93,7.308,12.001,7.308L12.001,7.308z" fill="#909090" />
		<path d="M4.091,7.771V6.296h1.392V4.948H3.417c-0.371,0-0.673,0.301-0.673,0.674v2.149C2.219,7.895,1.74,8.159,1.352,8.549
			C0.8,9.101,0.496,9.834,0.496,10.614c0,0.78,0.304,1.514,0.856,2.065c0.263,0.264,0.689,0.264,0.953,0
			c0.263-0.263,0.263-0.69,0-0.954c-0.613-0.613-0.613-1.611,0-2.224c0.298-0.297,0.692-0.461,1.112-0.461
			c0.42,0,0.816,0.164,1.112,0.461c0.613,0.613,0.613,1.611,0,2.224c-0.262,0.263-0.262,0.69,0,0.954
			c0.131,0.131,0.304,0.197,0.477,0.197c0.174,0,0.345-0.066,0.478-0.197c0.551-0.552,0.855-1.286,0.855-2.065
			c0-0.78-0.304-1.514-0.855-2.065C5.092,8.159,4.613,7.895,4.091,7.771z" fill="#909090" />
		<path d="M22.649,8.549c-0.39-0.39-0.869-0.654-1.391-0.777V5.623c0-0.373-0.302-0.674-0.675-0.674h-2.067v1.348h1.394v1.475
			c-0.523,0.123-1.003,0.388-1.392,0.777c-0.553,0.552-0.855,1.285-0.855,2.065c0,0.78,0.303,1.514,0.855,2.065
			c0.263,0.264,0.689,0.264,0.954,0c0.263-0.263,0.263-0.69,0-0.954c-0.613-0.613-0.613-1.611,0-2.224
			c0.296-0.297,0.691-0.461,1.111-0.461s0.815,0.164,1.111,0.461c0.613,0.613,0.613,1.611,0,2.224c-0.263,0.263-0.263,0.69,0,0.954
			c0.133,0.131,0.305,0.197,0.478,0.197c0.172,0,0.345-0.066,0.477-0.197c0.551-0.552,0.855-1.286,0.855-2.065
			C23.505,9.834,23.2,9.101,22.649,8.549L22.649,8.549z" fill="#909090" />
	</g>
	<circle cx="2.338" cy="21.708" r="1.797" fill="#909090" />
	<circle cx="12.001" cy="21.708" r="1.797" fill="#909090" />
	<path d="M14.58,19.91c0.356,0.509,0.566,1.129,0.566,1.797c0,0.667-0.21,1.288-0.566,1.798h4.503
		c-0.356-0.51-0.566-1.131-0.566-1.798c0-0.668,0.21-1.288,0.566-1.797H14.58z" fill="#909090" />
	<path d="M4.917,19.91c0.357,0.509,0.566,1.129,0.566,1.797c0,0.667-0.209,1.288-0.566,1.798h4.503
		c-0.356-0.51-0.566-1.131-0.566-1.798c0-0.668,0.21-1.288,0.566-1.797H4.917z" fill="#909090" />
	<circle cx="21.663" cy="21.708" r="1.797" fill="#909090" />
	<path d="M13.687,14.517h-3.372c-0.372,0-0.674,0.302-0.674,0.676v3.37h4.719v-3.37C14.36,14.818,14.059,14.517,13.687,14.517z" fill="#909090" />
	<path d="M6.945,14.517h-3.37c-0.374,0-0.675,0.302-0.675,0.676v3.37h4.72v-3.37C7.62,14.818,7.316,14.517,6.945,14.517z" fill="#909090" />
	<path d="M17.057,14.517c-0.373,0-0.674,0.302-0.674,0.676v3.37h4.718v-3.37c0-0.374-0.302-0.676-0.674-0.676H17.057z" fill="#909090" />
</g>
</svg>
